<svg role="img" viewBox="0 0 24 24" xmlns="http://www.w3.org/2000/svg""><title>Bang&Olufsen</title><path fill="#000" fill-rule="evenodd" d="M13.679 7.066c0 .679.266 1.303.769 1.807.706.708 1.48.804 2.007.762a2.77 2.77 0 0 0 1.688-.768l.11-.111c.316-.317.51-.512.699-.695l1.298 1.267.911-.917.012-.023-1.278-1.282.91-.913-.952-.953-.91.913s-2.657-2.67-2.987-3.005c-.177-.18-.285-.37-.285-.671 0-.32.143-.533.266-.654a1 1 0 0 1 .679-.29c.365 0 .59.194.668.276l.02.02.02-.02.54-.539.372-.374.016-.018-.025-.029a2.24 2.24 0 0 0-1.614-.671c-.635 0-1.223.254-1.654.714a2.34 2.34 0 0 0-.634 1.58c0 .955.542 1.542.926 1.9l-.81.793c-.47.471-.762 1.2-.762 1.9m1.717-.943.803-.805 1.798 1.785c-.082.085-.43.437-.814.818-.463.456-1.23.552-1.787-.006a1.23 1.23 0 0 1-.372-.882c0-.335.14-.676.372-.91m5.86 6.623a6.47 6.47 0 0 0-4.603-1.903 6.47 6.47 0 0 0-4.602 1.903 6.46 6.46 0 0 0-1.906 4.596 6.45 6.45 0 0 0 1.906 4.594 6.47 6.47 0 0 0 4.602 1.904 6.47 6.47 0 0 0 4.602-1.904 6.45 6.45 0 0 0 1.907-4.594 6.46 6.46 0 0 0-1.907-4.596m-4.603 9.422a4.8 4.8 0 0 1-3.418-1.414 4.8 4.8 0 0 1-1.418-3.412c0-1.29.505-2.502 1.418-3.413a4.8 4.8 0 0 1 3.418-1.415c1.292 0 2.506.502 3.42 1.415a4.8 4.8 0 0 1 1.415 3.413 4.836 4.836 0 0 1-4.835 4.826m-6.497-14.2a7.45 7.45 0 0 1-3.958 6.592 5.06 5.06 0 0 1 1.692 1.772c.43.753.657 1.612.657 2.484a5 5 0 0 1-1.482 3.566 5.02 5.02 0 0 1-3.57 1.477H1.02L1.018.499h1.659c1.998 0 3.876.777 5.29 2.19a7.4 7.4 0 0 1 2.189 5.28M6.783 3.87A5.78 5.78 0 0 0 2.7 2.172v11.594a5.79 5.79 0 0 0 4.083-1.697 5.75 5.75 0 0 0 1.699-4.1 5.75 5.75 0 0 0-1.7-4.1M2.7 22.187h.793a3.38 3.38 0 0 0 3.376-3.371c0-.9-.35-1.747-.987-2.385a3.38 3.38 0 0 0-2.396-.985l-.786-.004z" clip-rule="evenodd" style="stroke-width:.0951037"/></svg>
